# xmcd
# Track frame offsets:
# 225
# 18475
# 37574
# 54310
# 72778
# 90262
# 107569
# 125695
# 145441
# 169640
# 189156
# 208141
#
# Disc length: 2834 seconds
# Revision: 0
# Processed by: cddbd v1.5PL3 Copyright (c) Steve Scherf et al.
# Submitted via: VisiTrax 2.9.9.202 - For more info visit www.synapsa.com
#
DISCID=970b0f0c
DTITLE=Mr. David - Jody Is Back
DYEAR=2004
DGENRE=Blues
TTITLE0=Shoo Da Wop (Original)
TTITLE1=Sara Smile
TTITLE2=Slide On
TTITLE3=Red Silk Boxers
TTITLE4=Mandingo
TTITLE5=Fire Fire Luv
TTITLE6=Hate The Game
TTITLE7=I Cry (Featuring Regina Belle)
TTITLE8=1
TTITLE9=Freak You
TTITLE10=Shoo Da Wop (Featuring Sir Charles) (Remix)
TTITLE11=Barbara Thomas Outro - R.I.P.
EXTD=
EXTT0=
EXTT1=
EXTT2=
EXTT3=
EXTT4=
EXTT5=
EXTT6=
EXTT7=
EXTT8=
EXTT9=
EXTT10=
EXTT11=
PLAYORDER=
